<svg id="Icon_Set" enable-background="new 0 0 64 64" height="512" viewBox="0 0 64 64" width="512" xmlns="http://www.w3.org/2000/svg"><circle cx="41" cy="44" fill="#c2c2c2" r="16"/><path d="m41 60.5c-9.098 0-16.5-7.402-16.5-16.5s7.402-16.5 16.5-16.5 16.5 7.402 16.5 16.5-7.402 16.5-16.5 16.5zm0-32c-8.547 0-15.5 6.953-15.5 15.5s6.953 15.5 15.5 15.5 15.5-6.953 15.5-15.5-6.953-15.5-15.5-15.5z" fill="#212a41"/><circle cx="44" cy="44" fill="#e0e0e0" r="16"/><path d="m44 60.5c-9.098 0-16.5-7.402-16.5-16.5s7.402-16.5 16.5-16.5 16.5 7.402 16.5 16.5-7.402 16.5-16.5 16.5zm0-32c-8.547 0-15.5 6.953-15.5 15.5s6.953 15.5 15.5 15.5 15.5-6.953 15.5-15.5-6.953-15.5-15.5-15.5z" fill="#212a41"/><circle cx="44" cy="44" fill="#6c696f" r="12"/><path d="m44 56.5c-6.893 0-12.5-5.607-12.5-12.5s5.607-12.5 12.5-12.5 12.5 5.607 12.5 12.5-5.607 12.5-12.5 12.5zm0-24c-6.341 0-11.5 5.159-11.5 11.5s5.159 11.5 11.5 11.5 11.5-5.159 11.5-11.5-5.159-11.5-11.5-11.5z" fill="#212a41"/><path d="m44 54.5c-.276 0-.5-.224-.5-.5s.224-.5.5-.5c5.238 0 9.5-4.262 9.5-9.5 0-.276.224-.5.5-.5s.5.224.5.5c0 5.79-4.71 10.5-10.5 10.5z" fill="#4e4b51"/><path d="m44 51.5c-.153 0-.299-.07-.394-.191l-5.5-7c-.142-.181-.142-.437 0-.617l5.5-7c.189-.242.598-.242.787 0l5.5 7c.142.181.142.437 0 .617l-5.5 7c-.094.121-.24.191-.393.191zm-4.864-7.5 4.864 6.19 4.864-6.19-4.864-6.19z" fill="#212a41"/><path d="m44 47.5c-.082 0-.165-.021-.239-.062l-5.5-3c-.161-.086-.261-.255-.261-.438s.1-.352.261-.438l5.5-3c.148-.082.33-.082.479 0l5.5 3c.16.086.26.255.26.438s-.1.352-.261.438l-5.5 3c-.074.041-.157.062-.239.062zm-4.456-3.5 4.456 2.431 4.456-2.431-4.456-2.431z" fill="#212a41"/><path d="m44 51.5c-.276 0-.5-.224-.5-.5v-14c0-.276.224-.5.5-.5s.5.224.5.5v14c0 .276-.224.5-.5.5z" fill="#212a41"/><circle cx="32" cy="20" fill="#c2c2c2" r="16"/><path d="m32 36.5c-9.098 0-16.5-7.402-16.5-16.5s7.402-16.5 16.5-16.5 16.5 7.402 16.5 16.5-7.402 16.5-16.5 16.5zm0-32c-8.547 0-15.5 6.953-15.5 15.5s6.953 15.5 15.5 15.5 15.5-6.953 15.5-15.5-6.953-15.5-15.5-15.5z" fill="#212a41"/><circle cx="35" cy="20" fill="#e0e0e0" r="16"/><path d="m35 36.5c-9.098 0-16.5-7.402-16.5-16.5s7.402-16.5 16.5-16.5 16.5 7.402 16.5 16.5-7.402 16.5-16.5 16.5zm0-32c-8.547 0-15.5 6.953-15.5 15.5s6.953 15.5 15.5 15.5 15.5-6.953 15.5-15.5-6.953-15.5-15.5-15.5z" fill="#212a41"/><circle cx="35" cy="20" fill="#0079a8" r="12"/><path d="m35 32.5c-6.893 0-12.5-5.607-12.5-12.5s5.607-12.5 12.5-12.5 12.5 5.607 12.5 12.5-5.607 12.5-12.5 12.5zm0-24c-6.341 0-11.5 5.159-11.5 11.5s5.159 11.5 11.5 11.5 11.5-5.159 11.5-11.5-5.159-11.5-11.5-11.5z" fill="#212a41"/><path d="m25 20.5c-.276 0-.5-.224-.5-.5 0-5.79 4.71-10.5 10.5-10.5.276 0 .5.224.5.5s-.224.5-.5.5c-5.238 0-9.5 4.262-9.5 9.5 0 .276-.224.5-.5.5z" fill="#1e97c6"/><path d="m35 30.5c-.276 0-.5-.224-.5-.5s.224-.5.5-.5c5.238 0 9.5-4.262 9.5-9.5 0-.276.224-.5.5-.5s.5.224.5.5c0 5.79-4.71 10.5-10.5 10.5z" fill="#005b8a"/><circle cx="20" cy="44" fill="#c2c2c2" r="16"/><path d="m20 60.5c-9.098 0-16.5-7.402-16.5-16.5s7.402-16.5 16.5-16.5 16.5 7.402 16.5 16.5-7.402 16.5-16.5 16.5zm0-32c-8.547 0-15.5 6.953-15.5 15.5s6.953 15.5 15.5 15.5 15.5-6.953 15.5-15.5-6.953-15.5-15.5-15.5z" fill="#212a41"/><circle cx="23" cy="44" fill="#e0e0e0" r="16"/><path d="m23 60.5c-9.098 0-16.5-7.402-16.5-16.5s7.402-16.5 16.5-16.5 16.5 7.402 16.5 16.5-7.402 16.5-16.5 16.5zm0-32c-8.547 0-15.5 6.953-15.5 15.5s6.953 15.5 15.5 15.5 15.5-6.953 15.5-15.5-6.953-15.5-15.5-15.5z" fill="#212a41"/><circle cx="23" cy="44" fill="#f9ac2f" r="12"/><path d="m23 56.5c-6.893 0-12.5-5.607-12.5-12.5s5.607-12.5 12.5-12.5 12.5 5.607 12.5 12.5-5.607 12.5-12.5 12.5zm0-24c-6.341 0-11.5 5.159-11.5 11.5s5.159 11.5 11.5 11.5 11.5-5.159 11.5-11.5-5.159-11.5-11.5-11.5z" fill="#212a41"/><path d="m13 44.5c-.276 0-.5-.224-.5-.5 0-5.79 4.71-10.5 10.5-10.5.276 0 .5.224.5.5s-.224.5-.5.5c-5.238 0-9.5 4.262-9.5 9.5 0 .276-.224.5-.5.5z" fill="#ffca4d"/><path d="m23 54.5c-.276 0-.5-.224-.5-.5s.224-.5.5-.5c5.238 0 9.5-4.262 9.5-9.5 0-.276.224-.5.5-.5s.5.224.5.5c0 5.79-4.71 10.5-10.5 10.5z" fill="#db8e11"/><g fill="#212a41"><path d="m24 44.5h-3.5c-.276 0-.5-.224-.5-.5v-4c0-.276.224-.5.5-.5h3.5c1.379 0 2.5 1.121 2.5 2.5s-1.121 2.5-2.5 2.5zm-3-1h3c.827 0 1.5-.673 1.5-1.5s-.673-1.5-1.5-1.5h-3z"/><path d="m25 48.5h-4.5c-.276 0-.5-.224-.5-.5v-4c0-.276.224-.5.5-.5h4.5c1.379 0 2.5 1.121 2.5 2.5s-1.121 2.5-2.5 2.5zm-4-1h4c.827 0 1.5-.673 1.5-1.5s-.673-1.5-1.5-1.5h-4z"/><path d="m20.5 40.5h-1.5c-.276 0-.5-.224-.5-.5s.224-.5.5-.5h1.5c.276 0 .5.224.5.5s-.224.5-.5.5z"/><path d="m20.5 48.5h-1.5c-.276 0-.5-.224-.5-.5s.224-.5.5-.5h1.5c.276 0 .5.224.5.5s-.224.5-.5.5z"/><path d="m22 40.5c-.276 0-.5-.224-.5-.5v-2c0-.276.224-.5.5-.5s.5.224.5.5v2c0 .276-.224.5-.5.5z"/><path d="m24 40.5c-.276 0-.5-.224-.5-.5v-2c0-.276.224-.5.5-.5s.5.224.5.5v2c0 .276-.224.5-.5.5z"/><path d="m22 50.5c-.276 0-.5-.224-.5-.5v-2c0-.276.224-.5.5-.5s.5.224.5.5v2c0 .276-.224.5-.5.5z"/><path d="m24 50.5c-.276 0-.5-.224-.5-.5v-2c0-.276.224-.5.5-.5s.5.224.5.5v2c0 .276-.224.5-.5.5z"/><path d="m37.585 23.5h-7.559c-.276 0-.5-.224-.5-.5s.224-.5.5-.5h7.559c.646 0 1.219-.412 1.423-1.025l.667-2c.154-.463.079-.956-.206-1.352s-.729-.623-1.217-.623h-6.226c-.276 0-.5-.224-.5-.5s.224-.5.5-.5h6.226c.813 0 1.553.378 2.028 1.038.476.659.601 1.48.344 2.253l-.667 2c-.342 1.022-1.295 1.709-2.372 1.709z"/><path d="m32.746 20.5h-3c-.276 0-.5-.224-.5-.5s.224-.5.5-.5h3c.276 0 .5.224.5.5s-.224.5-.5.5z"/></g></svg>